# Blender v3.0.0 OBJ File: 'docs.blend'
# www.blender.org
mtllib docs.mtl
o Cube.002_Cube.003
v 0.111530 0.276622 -0.500000
v 0.111530 0.647117 -0.213734
v 0.111530 0.276285 -0.214194
v 0.083363 0.276622 -0.500000
v 0.083363 0.647117 -0.213734
v 0.083363 0.276285 -0.214194
v -0.097129 -0.647117 0.500000
v -0.097129 0.647117 0.500000
v -0.097129 -0.647117 -0.500000
v 0.097129 -0.647117 0.500000
v 0.097129 0.647117 0.500000
v 0.097129 -0.647117 -0.500000
v -0.097129 0.647117 -0.213734
v -0.097129 0.276622 -0.500000
v 0.097129 0.276622 -0.500000
v 0.097129 0.647117 -0.213734
v 0.097129 0.276285 -0.214194
v 0.133970 -0.438176 0.335179
v 0.133970 -0.316567 0.335179
v 0.133970 -0.438176 -0.335179
v 0.133970 -0.316567 -0.335179
v 0.055044 -0.438176 0.335179
v 0.055044 -0.316567 0.335179
v 0.055044 -0.438176 -0.335179
v 0.055044 -0.316567 -0.335179
v 0.133970 0.037640 0.335179
v 0.133970 0.159249 0.335179
v 0.133970 0.037640 -0.335179
v 0.133970 0.159249 -0.335179
v 0.055044 0.037640 0.335179
v 0.055044 0.159249 0.335179
v 0.055044 0.037640 -0.335179
v 0.055044 0.159249 -0.335179
v 0.133970 -0.203002 0.335179
v 0.133970 -0.081394 0.335179
v 0.133970 -0.203002 -0.335179
v 0.133970 -0.081394 -0.335179
v 0.055044 -0.203002 0.335179
v 0.055044 -0.081394 0.335179
v 0.055044 -0.203002 -0.335179
v 0.055044 -0.081394 -0.335179
vt 0.997352 2.278914
vt 0.692897 2.278455
vt 0.712139 1.993701
vt 0.997352 2.278914
vt 0.712139 1.993701
vt 0.692897 2.278455
vt 0.001030 0.997379
vt 0.712139 0.997379
vt 0.712139 1.993701
vt 0.001030 1.993701
vt 0.692897 2.278455
vt 0.997352 2.278914
vt 0.997352 2.990022
vt 0.001030 2.990022
vt 0.997352 3.986344
vt 0.001030 3.986344
vt -0.995291 1.993701
vt -0.995291 2.990022
vt 0.001030 0.001057
vt 0.997352 0.001057
vt 0.997352 0.712166
vt 0.997352 0.997379
vt 0.997352 1.993701
vt 1.993674 2.278914
vt 1.993674 2.990022
vt 0.375000 0.000000
vt 0.625000 0.000000
vt 0.625000 0.250000
vt 0.375000 0.250000
vt 0.625000 0.500000
vt 0.375000 0.500000
vt 0.625000 0.750000
vt 0.375000 0.750000
vt 0.625000 1.000000
vt 0.375000 1.000000
vt 0.125000 0.500000
vt 0.125000 0.750000
vt 0.875000 0.500000
vt 0.875000 0.750000
vt 0.375000 0.000000
vt 0.625000 0.000000
vt 0.625000 0.250000
vt 0.375000 0.250000
vt 0.625000 0.500000
vt 0.375000 0.500000
vt 0.625000 0.750000
vt 0.375000 0.750000
vt 0.625000 1.000000
vt 0.375000 1.000000
vt 0.125000 0.500000
vt 0.125000 0.750000
vt 0.875000 0.500000
vt 0.875000 0.750000
vt 0.375000 0.000000
vt 0.625000 0.000000
vt 0.625000 0.250000
vt 0.375000 0.250000
vt 0.625000 0.500000
vt 0.375000 0.500000
vt 0.625000 0.750000
vt 0.375000 0.750000
vt 0.625000 1.000000
vt 0.375000 1.000000
vt 0.125000 0.500000
vt 0.125000 0.750000
vt 0.875000 0.500000
vt 0.875000 0.750000
vn 1.0000 0.0000 0.0000
vn -1.0000 0.0000 0.0000
vn 0.0000 0.6114 -0.7913
vn 0.0000 -0.0012 1.0000
vn 0.0000 -1.0000 -0.0012
vn 0.0000 0.0000 -1.0000
vn 0.0000 0.0000 1.0000
vn 0.0000 -1.0000 0.0000
vn 0.0000 1.0000 0.0000
g Cube.002_Cube.003_Material.004
usemtl Material.004
s off
f 2/1/1 3/2/1 1/3/1
f 5/4/2 4/5/2 6/6/2
f 2/1/3 1/3/3 4/5/3 5/4/3
f 3/2/4 2/1/4 5/4/4 6/6/4
f 1/3/5 3/2/5 6/6/5 4/5/5
g Cube.002_Cube.003_Material
usemtl Material
f 9/7/6 14/8/6 15/9/6 12/10/6
f 12/10/1 15/9/1 17/11/1 16/12/1 11/13/1 10/14/1
f 10/14/7 11/13/7 8/15/7 7/16/7
f 9/17/8 12/10/8 10/14/8 7/18/8
f 7/19/2 8/20/2 13/21/2 14/8/2 9/7/2
f 13/22/3 16/23/3 15/9/3 14/8/3
f 16/12/9 13/24/9 8/25/9 11/13/9
g Cube.002_Cube.003_Material.005
usemtl Material.005
f 18/26/2 19/27/2 21/28/2 20/29/2
f 20/29/7 21/28/7 25/30/7 24/31/7
f 24/31/1 25/30/1 23/32/1 22/33/1
f 22/33/6 23/32/6 19/34/6 18/35/6
f 20/36/9 24/31/9 22/33/9 18/37/9
f 25/30/8 21/38/8 19/39/8 23/32/8
f 26/40/2 27/41/2 29/42/2 28/43/2
f 28/43/7 29/42/7 33/44/7 32/45/7
f 32/45/1 33/44/1 31/46/1 30/47/1
f 30/47/6 31/46/6 27/48/6 26/49/6
f 28/50/9 32/45/9 30/47/9 26/51/9
f 33/44/8 29/52/8 27/53/8 31/46/8
f 34/54/2 35/55/2 37/56/2 36/57/2
f 36/57/7 37/56/7 41/58/7 40/59/7
f 40/59/1 41/58/1 39/60/1 38/61/1
f 38/61/6 39/60/6 35/62/6 34/63/6
f 36/64/9 40/59/9 38/61/9 34/65/9
f 41/58/8 37/66/8 35/67/8 39/60/8
